<?xml version="1.0" encoding="iso-8859-1"?>
<!-- Generator: Adobe Illustrator 19.0.0, SVG Export Plug-In . SVG Version: 6.00 Build 0)  -->
<svg xmlns="http://www.w3.org/2000/svg" xmlns:xlink="http://www.w3.org/1999/xlink" version="1.1" id="Layer_1" x="0px" y="0px" viewBox="0 0 490 490" style="enable-background:new 0 0 490 490;" xml:space="preserve" width="512px" height="512px">
<g>
	<g>
		<g>
			<polygon points="220.456,206.127 193.324,275 250.4,275    " fill="#313d66"/>
			<path d="M415,105h-75h-10h-12V83V0H75c-5.523,0-10,4.477-10,10v470c0,5.523,4.477,10,10,10h340c5.522,0,10-4.477,10-10V105H415z      M275,185h20v-20h20v20h20v20h-20v20h-20v-20h-20V185z M110,40h40v20h-40V40z M110,80h80v20h-80V80z M150,430h-40v-20h40V430z      M145.696,341.335l65-165c1.482-3.763,5.086-6.263,9.13-6.333c4.088-0.043,7.732,2.302,9.345,6.011l70.713,162.637l-18.342,7.975     L259.097,295h-73.652l-21.141,53.665L145.696,341.335z M210,430h-40v-20h40V430z M380,430H230v-20h150V430z" fill="#313d66"/>
			<polygon points="340,5.857 340,34.142 340,83 417.143,83    " fill="#313d66"/>
		</g>
	</g>
</g>
<g>
</g>
<g>
</g>
<g>
</g>
<g>
</g>
<g>
</g>
<g>
</g>
<g>
</g>
<g>
</g>
<g>
</g>
<g>
</g>
<g>
</g>
<g>
</g>
<g>
</g>
<g>
</g>
<g>
</g>
</svg>
