<?xml version="1.0" encoding="iso-8859-1"?>
<!-- Generator: Adobe Illustrator 19.0.0, SVG Export Plug-In . SVG Version: 6.00 Build 0)  -->
<svg version="1.1" id="Capa_1" xmlns="http://www.w3.org/2000/svg" xmlns:xlink="http://www.w3.org/1999/xlink" x="0px" y="0px"
	 viewBox="0 0 512 512" style="enable-background:new 0 0 512 512;" xml:space="preserve">
<g>
	<path style="fill:#DB8137;" d="M357.258,264.512c0.01-1.31-0.006-2.627-0.047-3.949c-1.668-53.646-45.71-97.098-99.373-98.049
		c-56.766-1.006-103.098,44.708-103.098,101.244c0,0.224,0.001,0.448,0.002,0.671c0.118,17.921-10.518,33.941-26.955,41.082
		c-36.358,15.797-61.633,52.297-60.918,94.632c0.915,54.122,45.012,98.382,99.13,99.487c23.961,0.489,46.065-7.353,63.631-20.822
		c15.515-11.897,37.225-11.897,52.74,0c17.566,13.47,39.67,21.311,63.631,20.822c54.118-1.105,98.215-45.365,99.13-99.487
		c0.716-42.336-24.56-78.836-60.919-94.633C367.803,298.382,357.126,282.403,357.258,264.512z"/>
	<circle style="fill:#DB8137;" cx="61.61" cy="179.24" r="54.1"/>
	<circle style="fill:#DB8137;" cx="174.4" cy="66.449" r="54.1"/>
	<circle style="fill:#DB8137;" cx="450.39" cy="179.24" r="54.1"/>
	<circle style="fill:#DB8137;" cx="337.6" cy="66.449" r="54.1"/>
</g>
<g>
	<path style="fill:#D86C1A;" d="M445.134,400.147c-0.921,54.12-45.018,98.377-99.138,99.489
		c-23.961,0.481-46.06-7.359-63.622-20.827c-15.52-11.895-37.228-11.895-52.748,0c-17.563,13.467-39.661,21.308-63.622,20.827
		c-37.278-0.761-69.8-21.998-86.732-52.828c17.833,17.503,42.054,28.507,68.689,29.048c23.961,0.491,46.06-7.349,63.622-20.827
		c15.52-11.895,37.228-11.895,52.748,0c17.563,13.477,39.671,21.317,63.622,20.827c54.12-1.101,98.217-45.369,99.138-99.489
		c0.31-18.264-4.225-35.436-12.396-50.335C433.87,344.785,445.625,371.089,445.134,400.147z"/>
	<path style="fill:#D86C1A;" d="M115.719,179.24c0,29.879-24.221,54.1-54.11,54.1c-22.99,0-42.625-14.338-50.465-34.565
		c9.032,6.779,20.256,10.794,32.432,10.794c29.879,0,54.1-24.231,54.1-54.11c0-6.889-1.292-13.477-3.635-19.535
		C107.208,145.798,115.719,161.527,115.719,179.24z"/>
	<path style="fill:#D86C1A;" d="M228.504,66.454c0,29.879-24.221,54.1-54.1,54.1c-23,0-42.645-14.349-50.475-34.585
		c9.042,6.789,20.266,10.804,32.432,10.804c29.879,0,54.1-24.221,54.1-54.1c0-6.889-1.292-13.487-3.645-19.545
		C219.983,32.992,228.504,48.722,228.504,66.454z"/>
	<path style="fill:#D86C1A;" d="M504.491,179.24c0,29.879-24.221,54.1-54.1,54.1c-23,0-42.635-14.338-50.475-34.565
		c9.032,6.779,20.266,10.794,32.432,10.794c29.879,0,54.1-24.231,54.1-54.11c0-6.889-1.292-13.488-3.645-19.545
		C495.97,145.787,504.491,161.518,504.491,179.24z"/>
	<path style="fill:#D86C1A;" d="M391.705,66.454c0,29.879-24.231,54.1-54.11,54.1c-22.99,0-42.635-14.349-50.465-34.575
		c9.032,6.779,20.256,10.794,32.422,10.794c29.889,0,54.11-24.221,54.11-54.1c0-6.889-1.292-13.477-3.635-19.535
		C383.184,33.012,391.705,48.731,391.705,66.454z"/>
</g>
<path d="M387.204,298.624c-13.738-5.969-22.546-19.336-22.437-34.055c0.01-1.401-0.007-2.826-0.05-4.238
	c-0.951-30.593-15.028-59.593-38.62-79.565c-3.166-2.68-7.905-2.286-10.584,0.88c-2.68,3.165-2.286,7.904,0.879,10.583
	c20.351,17.228,32.493,42.221,33.312,68.569c0.038,1.22,0.053,2.451,0.044,3.66c-0.153,20.751,12.201,39.57,31.471,47.942
	c34.907,15.166,57.046,49.558,56.403,87.618c-0.409,24.224-10.149,47.113-27.425,64.451c-17.276,17.339-40.13,27.161-64.35,27.655
	c-21.529,0.449-41.892-6.225-58.908-19.273c-18.217-13.969-43.663-13.969-61.88,0c-17.015,13.048-37.382,19.718-58.907,19.273
	c-24.221-0.494-47.074-10.316-64.35-27.655c-17.276-17.338-27.015-40.227-27.425-64.45c-0.643-38.06,21.496-72.453,56.402-87.618
	c19.254-8.366,31.608-27.215,31.472-48.02l-0.002-0.622c0-25.356,9.963-49.108,28.053-66.88
	c18.085-17.768,42.026-27.322,67.403-26.855c4.782,0.085,9.587,0.541,14.281,1.358c4.085,0.709,7.975-2.026,8.686-6.112
	c0.71-4.086-2.026-7.975-6.112-8.685c-5.454-0.949-11.035-1.479-16.588-1.578c-29.435-0.516-57.212,10.543-78.195,31.158
	c-20.988,20.619-32.546,48.176-32.546,77.594l0.002,0.721c0.097,14.778-8.71,28.181-22.438,34.145
	c-40.496,17.594-66.18,57.494-65.434,101.647c0.476,28.129,11.77,54.692,31.803,74.798c20.033,20.107,46.556,31.496,74.683,32.07
	c24.97,0.507,48.603-7.226,68.353-22.371c12.835-9.843,30.765-9.843,43.6,0c19.14,14.677,41.926,22.396,66.04,22.395
	c0.769,0,1.542-0.008,2.314-0.023c28.126-0.574,54.649-11.964,74.683-32.07c20.033-20.105,31.327-46.669,31.803-74.798
	C453.386,356.117,427.701,316.217,387.204,298.624z"/>
<path d="M123.227,179.238c0-33.974-27.64-61.614-61.614-61.614C27.64,117.624,0,145.264,0,179.238s27.64,61.613,61.613,61.613
	C95.587,240.852,123.227,213.212,123.227,179.238z M15.019,179.238c0-25.692,20.902-46.594,46.594-46.594
	s46.594,20.902,46.594,46.594s-20.902,46.594-46.594,46.594C35.921,225.832,15.019,204.93,15.019,179.238z"/>
<path d="M174.402,128.063c33.974,0,61.614-27.64,61.614-61.613c0-33.974-27.64-61.614-61.614-61.614s-61.613,27.64-61.613,61.614
	C112.788,100.424,140.428,128.063,174.402,128.063z M174.402,19.856c25.692,0,46.594,20.902,46.594,46.594
	s-20.902,46.594-46.594,46.594s-46.594-20.902-46.594-46.594C127.808,40.757,148.71,19.856,174.402,19.856z"/>
<path d="M484.84,128.151c-3.438-2.322-8.105-1.418-10.427,2.019s-1.418,8.105,2.019,10.427
	c12.866,8.692,20.548,23.137,20.548,38.641c0,25.692-20.902,46.594-46.594,46.594s-46.594-20.902-46.594-46.594
	c0-18.299,10.783-34.983,27.473-42.504c3.781-1.704,5.465-6.151,3.761-9.932s-6.151-5.465-9.932-3.761
	c-22.064,9.944-36.321,32.003-36.321,56.198c0,33.974,27.64,61.613,61.613,61.613c33.974,0,61.614-27.64,61.614-61.613
	C512,158.738,501.847,139.641,484.84,128.151z"/>
<path d="M337.598,128.063c33.974,0,61.613-27.64,61.613-61.613c0-33.974-27.64-61.614-61.613-61.614
	c-33.974,0-61.614,27.64-61.614,61.614C275.984,100.424,303.624,128.063,337.598,128.063z M337.598,19.856
	c25.692,0,46.594,20.902,46.594,46.594s-20.902,46.594-46.594,46.594s-46.594-20.902-46.594-46.594
	C291.003,40.757,311.906,19.856,337.598,19.856z"/>
<g>
</g>
<g>
</g>
<g>
</g>
<g>
</g>
<g>
</g>
<g>
</g>
<g>
</g>
<g>
</g>
<g>
</g>
<g>
</g>
<g>
</g>
<g>
</g>
<g>
</g>
<g>
</g>
<g>
</g>
</svg>
