<?xml version="1.0" encoding="iso-8859-1"?>
<!-- Generator: Adobe Illustrator 19.0.0, SVG Export Plug-In . SVG Version: 6.00 Build 0)  -->
<svg version="1.1" id="Layer_1" xmlns="http://www.w3.org/2000/svg" xmlns:xlink="http://www.w3.org/1999/xlink" x="0px" y="0px"
	 viewBox="0 0 512 512" style="enable-background:new 0 0 512 512;" xml:space="preserve">
<g>
	<path style="fill:#2D527C;" d="M355.191,512H156.809c-24.721,0-44.832-20.111-44.832-44.83c0-14.758,7.169-27.874,18.207-36.05
		c-7.567-11.986-9.545-27.237-4.131-41.514l31.483-83.026c12.664-33.39,19.099-68.428,19.129-104.14l0.056-23.443
		c0.018-7.692,6.259-13.915,13.945-13.915c0.013,0,0.024,0,0.033,0c7.703,0.02,13.931,6.277,13.915,13.979l-0.056,23.422
		c-0.032,39.075-7.078,77.432-20.941,113.985l-31.483,83.026c-4.007,10.563,2.025,20.481,10.173,23.965
		c6.089,2.604,9.507,9.134,8.178,15.622c-1.329,6.488-7.04,11.148-13.664,11.148c-9.354,0-16.952,7.598-16.952,16.938
		s7.598,16.937,16.938,16.937h198.381c9.339,0,16.938-7.597,16.938-16.937s-7.598-16.938-16.938-16.938
		c-6.623,0-12.341-4.66-13.671-11.148s2.081-13.018,8.17-15.622c8.148-3.484,14.18-13.4,10.173-23.965l-31.485-83.029
		c-5.884-15.519-10.604-31.626-14.025-47.872c-1.589-7.537,3.236-14.934,10.774-16.521c7.531-1.59,14.933,3.236,16.521,10.774
		c3.125,14.842,7.436,29.553,12.813,43.729l31.485,83.029c5.414,14.276,3.435,29.529-4.132,41.517
		c11.04,8.173,18.209,21.29,18.209,36.047C400.021,491.889,379.91,512,355.191,512z"/>
	<path style="fill:#2D527C;" d="M289.937,450.233H156.825c-7.701,0-13.947-6.245-13.947-13.947s6.245-13.947,13.947-13.947h133.112
		c7.701,0,13.947,6.245,13.947,13.947S297.638,450.233,289.937,450.233z"/>
</g>
<circle style="fill:#CEE8FA;" cx="256.006" cy="92.118" r="78.171"/>
<path style="fill:#2D527C;" d="M256,184.238c-50.795,0-92.12-41.324-92.12-92.12C163.88,41.324,205.205,0,256,0
	s92.12,41.324,92.12,92.118C348.118,142.914,306.795,184.238,256,184.238z M256,27.893c-35.415,0-64.226,28.811-64.226,64.225
	c0,35.415,28.811,64.226,64.226,64.226s64.226-28.811,64.226-64.226C320.225,56.705,291.414,27.893,256,27.893z"/>
<path style="fill:#CEE8FA;" d="M320.516,200.168H191.484c-14.113,0-25.553-11.441-25.553-25.553l0,0
	c0-14.113,11.441-25.553,25.553-25.553h129.032c14.113,0,25.553,11.441,25.553,25.553l0,0
	C346.069,188.727,334.629,200.168,320.516,200.168z"/>
<path style="fill:#2D527C;" d="M320.515,214.114H191.482c-21.781,0-39.5-17.719-39.5-39.5s17.719-39.5,39.5-39.5h129.032
	c21.781,0,39.5,17.719,39.5,39.5S342.297,214.114,320.515,214.114z M191.484,163.008c-6.4,0-11.606,5.206-11.606,11.606
	s5.206,11.606,11.606,11.606h129.032c6.4,0,11.606-5.206,11.606-11.606s-5.206-11.606-11.606-11.606H191.484z"/>
<g>
</g>
<g>
</g>
<g>
</g>
<g>
</g>
<g>
</g>
<g>
</g>
<g>
</g>
<g>
</g>
<g>
</g>
<g>
</g>
<g>
</g>
<g>
</g>
<g>
</g>
<g>
</g>
<g>
</g>
</svg>
