<?xml version="1.0" encoding="iso-8859-1"?>
<!-- Generator: Adobe Illustrator 19.0.0, SVG Export Plug-In . SVG Version: 6.00 Build 0)  -->
<svg version="1.1" id="Layer_1" xmlns="http://www.w3.org/2000/svg" xmlns:xlink="http://www.w3.org/1999/xlink" x="0px" y="0px"
	 viewBox="0 0 512 512" style="enable-background:new 0 0 512 512;" xml:space="preserve">
<polygon style="fill:#424242;" points="379.976,103.433 132.024,103.433 32.89,0 32.89,419.665 256,512 479.11,419.665 479.11,0 "/>
<path style="fill:#7DAEC9;" d="M330.653,161.959c-33.096,0-61.607,19.559-74.653,47.741c-13.046-28.181-41.557-47.741-74.653-47.741
	c-45.42,0-82.24,36.82-82.24,82.24V447.07L256,512l156.892-64.93V244.199C412.892,198.779,376.072,161.959,330.653,161.959z"/>
<polygon style="fill:#707070;" points="256,103.433 132.024,103.433 32.89,0 32.89,419.665 256,512 "/>
<path style="fill:#BDE5F9;" d="M256,209.701c-13.046-28.181-41.557-47.741-74.653-47.741c-45.42,0-82.24,36.82-82.24,82.24V447.07
	L256,512V209.701z"/>
<g>
	<path style="fill:#424242;" d="M177.553,221.956c-14.196,0-25.746,11.55-25.746,25.747c0,14.196,11.55,25.746,25.746,25.746
		S203.3,261.9,203.3,247.704C203.3,233.506,191.75,221.956,177.553,221.956z"/>
	<path style="fill:#424242;" d="M334.447,221.956c-14.196,0-25.746,11.55-25.746,25.747c0,14.196,11.55,25.746,25.746,25.746
		s25.746-11.55,25.746-25.746C360.193,233.506,348.643,221.956,334.447,221.956z"/>
	<path style="fill:#424242;" d="M282.966,411.57c15.692,0,28.414-12.722,28.414-28.414c0-15.692-12.722-28.414-28.414-28.414h-53.93
		c-15.692,0-28.414,12.722-28.414,28.414c0,15.693,12.722,28.414,28.414,28.414h11.291v93.945L256,512l15.673-6.487v-93.945h11.292
		V411.57z"/>
</g>
<g>
</g>
<g>
</g>
<g>
</g>
<g>
</g>
<g>
</g>
<g>
</g>
<g>
</g>
<g>
</g>
<g>
</g>
<g>
</g>
<g>
</g>
<g>
</g>
<g>
</g>
<g>
</g>
<g>
</g>
</svg>
