<?xml version="1.0" encoding="iso-8859-1"?>
<!-- Generator: Adobe Illustrator 19.0.0, SVG Export Plug-In . SVG Version: 6.00 Build 0)  -->
<svg xmlns="http://www.w3.org/2000/svg" xmlns:xlink="http://www.w3.org/1999/xlink" version="1.1" id="Layer_1" x="0px" y="0px" viewBox="0 0 512 512" style="enable-background:new 0 0 512 512;" xml:space="preserve" width="512px" height="512px">
<g>
	<g>
		<path d="M501.344,96H10.664C4.773,96,0,100.773,0,106.664v298.68C0,411.219,4.773,416,10.664,416h490.68    c5.875,0,10.656-4.781,10.656-10.656v-298.68C512,100.773,507.219,96,501.344,96z M490.656,394.656H21.336v-277.32h469.32V394.656    z" fill="#345a80"/>
	</g>
</g>
<g>
	<g>
		<path d="M148.32,152.891l-37.266,65.211L91.43,185.398l-48.766,81.266h40.641h56.883h73.148L148.32,152.891z M95.492,245.335    H80.345l11.085-18.476l7.484,12.484L95.492,245.335z M120.062,245.336l28.258-49.445l28.25,49.445H120.062z" fill="#345a80"/>
	</g>
</g>
<g>
	<g>
		<path d="M458.656,352H288c-5.891,0-10.656,4.781-10.656,10.656c0,5.906,4.765,10.688,10.656,10.688h170.656    c5.906,0,10.688-4.781,10.688-10.688C469.344,356.781,464.563,352,458.656,352z" fill="#345a80"/>
	</g>
</g>
<g>
	<g>
		<path d="M458.656,309.344h-85.312c-5.906,0-10.688,4.766-10.688,10.656s4.782,10.656,10.688,10.656h85.312    c5.906,0,10.688-4.766,10.688-10.656S464.563,309.344,458.656,309.344z" fill="#345a80"/>
	</g>
</g>
<g>
</g>
<g>
</g>
<g>
</g>
<g>
</g>
<g>
</g>
<g>
</g>
<g>
</g>
<g>
</g>
<g>
</g>
<g>
</g>
<g>
</g>
<g>
</g>
<g>
</g>
<g>
</g>
<g>
</g>
</svg>
